<svg xmlns="http://www.w3.org/2000/svg" xmlns:xlink="http://www.w3.org/1999/xlink" version="1.1" x="0px" y="0px" viewBox="0 0 100 125" enable-background="new 0 0 100 100" xml:space="preserve">
  <path fill="#000000" d="M3.065,54.648c0.028,0.092,0.07,0.18,0.124,0.26l0.406,0.609c0.052,0.078,0.114,0.148,0.186,0.209  l0.66,0.559c0.084,0.072,0.18,0.129,0.283,0.168l0.914,0.355l66.596,22.557c0.026,0.01,0.052,0.018,0.078,0.023l1.016,0.254  c0.064,0.016,0.13,0.025,0.196,0.029l1.065,0.049c0.016,0.002,0.031,0.002,0.047,0.002c0.03,0,0.062-0.002,0.091-0.004l1.117-0.104  c0.066-0.006,0.133-0.018,0.195-0.037l1.016-0.305c0.048-0.014,0.094-0.031,0.139-0.053l0.863-0.406  c0.064-0.031,0.127-0.068,0.184-0.111l0.66-0.508c0.051-0.039,0.097-0.082,0.139-0.129l16.195-18.275  c0.029-0.035,0.059-0.07,0.084-0.109l0.406-0.611c0.08-0.121,0.133-0.258,0.155-0.4l0.102-0.66c0.008-0.051,0.012-0.102,0.012-0.152  V46.74c0-0.076-0.009-0.151-0.026-0.226l-0.152-0.659c-0.035-0.149-0.104-0.289-0.2-0.407l-0.457-0.559  c-0.046-0.057-0.099-0.108-0.155-0.153l-0.711-0.559c-0.06-0.047-0.124-0.086-0.192-0.118l-0.862-0.406  c-0.035-0.017-0.07-0.031-0.105-0.043L26.577,21.121c-0.026-0.009-0.052-0.017-0.079-0.023l-1.016-0.253  c-0.049-0.012-0.1-0.021-0.15-0.025l-1.117-0.103c-0.03-0.003-0.061-0.004-0.091-0.004c-0.047,0-0.095,0.003-0.142,0.01  l-1.066,0.152c-0.034,0.005-0.067,0.012-0.101,0.021L21.8,21.149c-0.078,0.02-0.154,0.048-0.226,0.086l-0.863,0.457  c-0.061,0.032-0.119,0.071-0.172,0.115l-0.609,0.508c-0.038,0.032-0.074,0.066-0.106,0.104L3.579,40.644  c-0.039,0.043-0.074,0.091-0.104,0.141l-0.406,0.658c-0.07,0.113-0.117,0.239-0.137,0.372l-0.102,0.66  c-0.008,0.05-0.012,0.102-0.012,0.152v0.406v10.662c0,0.1,0.015,0.199,0.044,0.295L3.065,54.648z M80.846,47.127l0.367-0.612  l0.652-0.521l0.871-0.46l1.075-0.279l1.136-0.095l1.193,0.048l1.059,0.276l0.939,0.47l0.711,0.489l0.393,0.548l0.117,0.625  l-0.076,0.572l-0.352,0.548l-0.66,0.527l-0.875,0.462l-1.065,0.277l-1.189,0.095l-1.146-0.048l-1.068-0.278l-0.927-0.418  l-0.708-0.531l-0.41-0.573l-0.15-0.56L80.846,47.127z M54.967,54.316l-0.405,0.568l-0.616,0.572l-0.859,0.408l-1.137,0.332  l-1.124,0.094l-1.184-0.096l-1.095-0.285l-0.922-0.369l-0.7-0.525l-0.407-0.57l-0.147-0.588l0.152-0.533l0.332-0.625l0.643-0.514  l0.873-0.459l1.078-0.281l1.186-0.143l1.175,0.094l1.083,0.283l0.921,0.414l0.658,0.527l0.414,0.582l0.154,0.576L54.967,54.316z   M68.66,60.791l0.362-0.562l0.66-0.529l0.878-0.461l1.062-0.324l1.137-0.047l1.243,0.047l1.079,0.281l0.916,0.41l0.665,0.533  l0.407,0.529l0.15,0.602l-0.113,0.568l-0.364,0.605l-0.601,0.473l-0.931,0.465l-1.078,0.33l-1.124,0.094l-1.193-0.096l-1.073-0.234  l-0.918-0.459L69.1,62.471l-0.4-0.52l-0.15-0.602L68.66,60.791z M58.66,39.621l0.367-0.572l0.652-0.565l0.867-0.41l1.084-0.283  l1.186-0.143l1.126,0.094l1.095,0.286l0.914,0.366l0.701,0.569l0.406,0.569l0.115,0.576L67.1,40.675l-0.353,0.547l-0.663,0.53  l-0.869,0.457l-1.079,0.281l-1.185,0.144l-1.136-0.096l-1.073-0.233l-0.918-0.459L59.1,41.301l-0.4-0.52l-0.152-0.602L58.66,39.621z   M57.859,35.148c0.207,0.184,0.226,0.5,0.042,0.706L41.606,54.18c-0.099,0.111-0.236,0.168-0.374,0.168  c-0.118,0-0.237-0.043-0.332-0.127c-0.207-0.184-0.225-0.5-0.042-0.705L57.154,35.19C57.338,34.983,57.654,34.966,57.859,35.148z   M43.889,34.586l0.313-0.507l0.7-0.569l0.871-0.412l1.042-0.284l1.18-0.142l1.186,0.095l1.081,0.234l0.919,0.414l0.707,0.531  l0.4,0.56l0.115,0.575l-0.076,0.606l-0.398,0.558l-0.623,0.535l-0.864,0.454l-1.068,0.279l-1.188,0.095l-1.145-0.048l-1.069-0.279  l-0.928-0.417l-0.707-0.53l-0.41-0.574l-0.15-0.562L43.889,34.586z M32.771,30.881l0.366-0.611l0.656-0.524l0.869-0.457l1.07-0.28  l1.188-0.094l1.195,0.048l1.061,0.277l0.93,0.464l0.665,0.487l0.405,0.568l0.153,0.61l-0.111,0.559L40.85,32.5l-0.656,0.567  l-0.859,0.408l-1.088,0.284l-1.139,0.142l-1.173-0.093l-1.082-0.282l-0.931-0.419l-0.704-0.529l-0.411-0.575l-0.149-0.56  L32.771,30.881z M31.705,48.292l0.365-0.608l0.652-0.521l0.921-0.46l1.027-0.28l1.131-0.096l1.194,0.097l1.071,0.232l0.932,0.467  l0.709,0.488l0.402,0.562l0.152,0.608l-0.112,0.56l-0.371,0.578l-0.604,0.561l-0.905,0.408l-1.082,0.282l-1.141,0.096l-1.192-0.049  l-1.07-0.28l-0.928-0.417l-0.708-0.53l-0.409-0.573l-0.149-0.561L31.705,48.292z M21.704,27.13l0.359-0.56l0.662-0.529l0.881-0.464  l1.011-0.322l1.231-0.047l1.16,0.048l1.06,0.23l0.917,0.459l0.724,0.544l0.395,0.512l0.113,0.567l-0.076,0.606l-0.399,0.559  l-0.621,0.532l-0.863,0.455L27.183,30L26,30.095l-1.155-0.048l-1.061-0.23l-0.917-0.458l-0.716-0.537l-0.411-0.577l-0.147-0.517  L21.704,27.13z M20.64,44.53l0.316-0.556l0.647-0.518l0.932-0.466l1.014-0.322l1.183-0.047l1.195,0.048l1.077,0.28l0.916,0.412  l0.667,0.533l0.407,0.529l0.154,0.618l-0.075,0.564l-0.352,0.587l-0.651,0.477l-0.886,0.466l-1.076,0.329l-1.171,0.094l-1.148-0.096  l-1.125-0.234l-0.908-0.454l-0.677-0.542l-0.408-0.529l-0.148-0.557L20.64,44.53z M9.563,40.791l0.332-0.581l0.643-0.557  l0.914-0.411l1.044-0.285l1.18-0.142l1.125,0.094l1.151,0.287l0.902,0.362l0.655,0.567l0.42,0.588l0.149,0.56l-0.11,0.554  l-0.374,0.582l-0.609,0.564l-0.898,0.449l-1.081,0.235l-1.149,0.144l-1.182-0.095l-1.083-0.235l-0.918-0.413l-0.707-0.529  l-0.408-0.571L9.41,41.363L9.563,40.791z"/>
</svg>