<svg xmlns="http://www.w3.org/2000/svg" viewBox="-5 0 71 70" x="0px" y="0px">

<path fill="#000000" fill-rule="evenodd" d="M687.376931,363.168609 C687.752779,363.69062 688.35676,364 689,364 L712,364 C712.693975,364 713.338347,363.640253 713.702511,363.049503 C713.765364,362.947543 714.552842,361.589142 714.849514,361.045502 C715.694734,359.496673 716.539218,357.807149 717.328548,356.028822 C718.668528,353.009906 719.711408,350.04665 720.341863,347.235536 C720.754398,345.396093 720.981662,343.654092 720.999875,342.022322 L721,314.996535 C721,313.340344 719.660661,312 718.001043,312 L716.998957,312 C715.341155,312 713.998851,313.345935 714.001754,315.002866 L714.025284,328.432063 C714.026247,328.981675 713.584909,329.42382 713.032932,329.42382 C712.446151,329.42382 712,328.97749 712,328.423677 L712,305.493899 C712,303.563088 710.424887,302 708.499167,302 L707.500833,302 C705.566505,302 704,303.563242 704,305.501307 L704,325.00891 C704,325.553431 703.551753,326 703,326 C702.449584,326 702,325.549982 702,324.999981 L702,299.508264 C702,297.57384 700.429158,296 698.499167,296 L697.500833,296 C695.56469,296 694,297.562634 694,299.505402 L694,323.00351 C694,323.551822 693.550948,324 693,324 C692.44756,324 692,323.5535 692,323.00891 L692,303.501307 C692,301.568644 690.427089,300 688.499167,300 L687.500833,300 C685.565558,300 684,301.565251 684,303.50435 L684,341.399994 L682.101199,338.546247 C679.195479,334.187667 674.128479,332.735967 670.75061,335.438262 C669.918859,336.103663 669.754553,337.304195 670.376931,338.168609 L687.376931,363.168609 Z" transform="translate(-670 -296)" />

</svg>