<svg xmlns:dc="http://purl.org/dc/elements/1.1/" xmlns:cc="http://creativecommons.org/ns#" xmlns:rdf="http://www.w3.org/1999/02/22-rdf-syntax-ns#" xmlns:svg="http://www.w3.org/2000/svg" xmlns="http://www.w3.org/2000/svg" xmlns:sodipodi="http://sodipodi.sourceforge.net/DTD/sodipodi-0.dtd" xmlns:inkscape="http://www.inkscape.org/namespaces/inkscape" version="1.1" x="0px" y="0px" viewBox="0 0 100 125">

  <g transform="translate(0,-952.36218)">

    <path fill="#ffffff" d="m 56.3125,974.33468 a 4.0004,4.0004 0 0 0 -3.6875,3 l -13,48.00002 a 4.0139288,4.0139288 0 1 0 7.75,2.0938 l 13,-48.00007 a 4.0004,4.0004 0 0 0 -4.0625,-5.09375 z m -23.3125,5 a 4.0004,4.0004 0 0 0 -2.4688,0.90625 l -23.9999997,19 a 4.0004,4.0004 0 0 0 0,6.28127 l 23.9999997,19 a 4.0004,4.0004 0 1 0 4.9376,-6.2813 L 15.4375,1002.3972 35.4688,986.52218 A 4.0004,4.0004 0 0 0 33,979.33468 z m 33.9062,0 a 4.0004,4.0004 0 0 0 -2.375,7.1875 l 20.0313,15.87502 -20.0313,15.8437 a 4.0004,4.0004 0 1 0 4.9376,6.2813 l 24,-19 a 4.0004,4.0004 0 0 0 0,-6.28127 l -24,-19 a 4.0004,4.0004 0 0 0 -2.5626,-0.90625 z" />

  </g>


</svg>