<svg xmlns="http://www.w3.org/2000/svg" xmlns:xlink="http://www.w3.org/1999/xlink" xml:space="preserve" version="1.1" viewBox="0 0 10 10" >
  <g>
    <path fill="#757575" d="M5.006 0c2.765,0 5.007,2.241 5.007,5.006 0,2.765 -2.242,5.007 -5.007,5.007 -2.765,0 -5.006,-2.242 -5.006,-5.007 0,-2.765 2.241,-5.006 5.006,-5.006zm1.685 4.571c-0.115,0.115 -0.115,0.301 0,0.416 0.115,0.115 0.302,0.115 0.417,0l0.208 -0.208c0.572,-0.572 0.572,-1.51 0,-2.082 -0.572,-0.573 -1.51,-0.573 -2.082,0l-0.932 0.931c-0.572,0.572 -0.572,1.51 0.001,2.082 0.115,0.115 0.301,0.115 0.416,0 0.115,-0.115 0.115,-0.301 0,-0.416 -0.344,-0.344 -0.344,-0.906 0,-1.25l0.931 -0.931c0.344,-0.344 0.906,-0.344 1.25,0 0.344,0.344 0.344,0.905 0,1.249l-0.209 0.209zm-3.37 0.871c0.115,-0.115 0.115,-0.302 0,-0.417 -0.115,-0.115 -0.301,-0.115 -0.416,0l-0.208 0.209c-0.572,0.572 -0.572,1.51 0,2.082 0.572,0.573 1.509,0.573 2.082,0l0.931 -0.931c0.573,-0.573 0.573,-1.51 0,-2.083 -0.115,-0.115 -0.301,-0.115 -0.416,0 -0.115,0.115 -0.115,0.302 0,0.417 0.343,0.344 0.344,0.906 0,1.249l-0.932 0.932c-0.343,0.343 -0.905,0.343 -1.249,0 -0.344,-0.344 -0.344,-0.905 0,-1.25l0.208 -0.208z"/>
  </g> 
</svg>