<svg xmlns="http://www.w3.org/2000/svg" xmlns:xlink="http://www.w3.org/1999/xlink" viewBox="0 0 32 40" version="1.1" xml:space="preserve" style="" x="0px" y="0px" fill-rule="evenodd" clip-rule="evenodd" stroke-linejoin="round" stroke-miterlimit="1.41421"><g transform="matrix(1,0,0,1,-216,-45)"><g transform="matrix(1,0,0,1,216,45)"><rect x="0" y="0" width="32" height="32" style="" fill="none"/><g transform="matrix(1,0,0,1,-216,-45)">

<path fill="#ffffff" d="M232.006,46C232.052,46 232.1,46.001 232.194,46.001C232.893,46.015 233.59,46.067 234.282,46.173C235.683,46.387 237.053,46.803 238.337,47.403C239.811,48.091 241.17,49.021 242.347,50.144C243.61,51.348 244.662,52.772 245.439,54.335C246.069,55.601 246.517,56.955 246.766,58.347C247.045,59.912 247.075,61.521 246.854,63.096C246.641,64.622 246.189,66.113 245.519,67.502C244.735,69.129 243.654,70.61 242.347,71.856C240.994,73.147 239.4,74.182 237.668,74.89C235.882,75.621 233.958,75.996 232.029,76C232.019,76 232.01,76 232,76C231.99,76 231.981,76 231.971,76C230.042,75.996 228.118,75.621 226.332,74.89C224.6,74.182 223.007,73.147 221.653,71.856C220.346,70.61 219.265,69.129 218.481,67.502C217.811,66.113 217.359,64.622 217.146,63.096C216.916,61.46 216.957,59.785 217.269,58.163C217.535,56.776 217.999,55.429 218.643,54.173C219.384,52.727 220.361,51.404 221.523,50.269C222.73,49.09 224.135,48.117 225.663,47.403C226.947,46.803 228.317,46.387 229.718,46.173C230.41,46.067 231.107,46.015 231.806,46.001C231.9,46.001 231.948,46 231.995,46L232,46L232.006,46ZM231,73.803L231,67L226.703,67C226.841,67.552 227.002,68.099 227.189,68.637C227.335,69.058 227.497,69.473 227.677,69.881C227.828,70.22 227.992,70.554 228.171,70.879C228.3,71.114 228.437,71.345 228.583,71.569C228.701,71.749 228.824,71.925 228.954,72.096C229.056,72.23 229.161,72.361 229.272,72.488C229.355,72.584 229.441,72.678 229.53,72.769C229.947,73.196 230.441,73.581 231,73.803ZM237.297,67L233,67L233,73.803C233.558,73.581 234.053,73.196 234.47,72.769C234.559,72.678 234.645,72.584 234.728,72.488C234.839,72.361 234.944,72.23 235.046,72.096C235.176,71.925 235.299,71.749 235.416,71.569C235.585,71.311 235.741,71.046 235.886,70.774C236.064,70.444 236.226,70.106 236.375,69.762C236.553,69.35 236.713,68.93 236.856,68.505C237.024,68.01 237.17,67.507 237.297,67ZM243.534,67L239.353,67C239.143,67.925 238.877,68.837 238.545,69.725C238.372,70.187 238.181,70.642 237.969,71.088C237.807,71.426 237.634,71.759 237.446,72.084C237.311,72.318 237.169,72.548 237.018,72.773C236.949,72.877 236.877,72.98 236.804,73.082C236.84,73.068 236.876,73.054 236.911,73.039C238.412,72.425 239.794,71.527 240.967,70.409C242.001,69.422 242.872,68.267 243.534,67ZM224.647,67L220.466,67C221.128,68.267 221.999,69.422 223.033,70.409C224.206,71.527 225.588,72.425 227.089,73.039C227.124,73.054 227.16,73.068 227.196,73.082C227.123,72.98 227.051,72.877 226.982,72.773C226.831,72.548 226.689,72.318 226.554,72.084C226.366,71.759 226.193,71.426 226.031,71.088C225.819,70.642 225.628,70.187 225.455,69.725C225.123,68.837 224.857,67.925 224.647,67ZM219.637,56.971C219.47,57.485 219.335,58.009 219.233,58.54C218.963,59.947 218.927,61.399 219.126,62.818C219.231,63.568 219.403,64.309 219.638,65.029C219.652,65.025 219.666,65.022 219.68,65.019C219.766,65.002 219.788,65.004 219.875,65C221.342,65 222.808,64.987 224.275,64.968C224.01,63.106 223.94,61.214 224.047,59.336C224.092,58.555 224.168,57.775 224.279,57L219.875,57C219.788,56.996 219.766,56.998 219.68,56.981C219.666,56.978 219.652,56.975 219.637,56.971ZM244.363,56.971C244.348,56.975 244.334,56.978 244.32,56.981C244.234,56.998 244.212,56.996 244.125,57L239.721,57C239.823,57.715 239.896,58.434 239.942,59.154C240.063,61.055 240,62.971 239.74,64.858C241.235,64.885 242.729,64.931 244.223,65.005C244.288,65.014 244.316,65.017 244.363,65.028C244.597,64.309 244.769,63.568 244.874,62.818C245.073,61.399 245.037,59.947 244.767,58.54C244.665,58.009 244.53,57.485 244.363,56.971ZM231,64.867L231,57L226.302,57C226.158,57.924 226.068,58.857 226.027,59.791C225.952,61.479 226.03,63.177 226.279,64.849C226.283,64.879 226.288,64.91 226.293,64.94C227.862,64.916 229.431,64.888 231,64.867ZM237.698,57L233,57L233,64.843C234.575,64.827 236.149,64.821 237.724,64.833C237.731,64.785 237.737,64.738 237.744,64.69C237.974,63.069 238.046,61.426 237.973,59.791C237.932,58.857 237.842,57.924 237.698,57ZM227.196,48.918C226.964,49.01 226.735,49.109 226.509,49.215C225.184,49.834 223.967,50.678 222.921,51.7C221.936,52.662 221.104,53.779 220.467,54.999C221.863,54.996 223.26,54.982 224.656,54.963C224.664,54.929 224.672,54.894 224.68,54.859C224.953,53.692 225.314,52.543 225.79,51.443C225.943,51.09 226.107,50.743 226.286,50.403C226.435,50.118 226.594,49.838 226.764,49.565C226.901,49.345 227.044,49.129 227.196,48.918ZM236.804,48.918C236.956,49.129 237.099,49.345 237.236,49.565C237.406,49.838 237.565,50.118 237.714,50.403C237.893,50.743 238.057,51.09 238.21,51.443C238.685,52.54 239.045,53.687 239.318,54.851C240.719,54.873 242.119,54.911 243.519,54.972C242.86,53.716 241.994,52.57 240.967,51.591C239.946,50.618 238.768,49.812 237.491,49.215C237.265,49.109 237.036,49.01 236.804,48.918ZM231,48.197C230.382,48.441 229.846,48.883 229.4,49.368C229.289,49.489 229.183,49.614 229.08,49.742C228.971,49.878 228.867,50.017 228.767,50.159C228.64,50.341 228.519,50.527 228.404,50.717C228.24,50.988 228.087,51.266 227.946,51.55C227.774,51.893 227.617,52.244 227.474,52.601C227.168,53.359 226.921,54.14 226.72,54.933C228.147,54.911 229.574,54.886 231,54.867L231,48.197ZM233,48.197L233,54.843C234.418,54.829 235.836,54.822 237.253,54.83C237.057,54.072 236.818,53.326 236.526,52.601C236.383,52.244 236.226,51.893 236.054,51.55C235.913,51.266 235.761,50.988 235.596,50.717C235.481,50.527 235.361,50.341 235.233,50.159C235.133,50.017 235.029,49.878 234.92,49.742C234.817,49.614 234.711,49.489 234.6,49.368C234.153,48.883 233.618,48.441 233,48.197Z"/></g></g></g>

</svg>